<mxfile host="app.diagrams.net" agent="Mozilla/5.0 (Windows NT 10.0; Win64; x64) AppleWebKit/537.36 (KHTML, like Gecko) Chrome/137.0.0.0 Safari/537.36" version="27.1.4">
  <diagram name="Page-1" id="AtMGmvlnoXk7iNUSf-i6">
    <mxGraphModel dx="1426" dy="3063" grid="1" gridSize="10" guides="1" tooltips="1" connect="1" arrows="1" fold="1" page="1" pageScale="1" pageWidth="850" pageHeight="1100" background="#FFFFFF" math="0" shadow="0">
      <root>
        <mxCell id="0" />
        <mxCell id="1" parent="0" />
        <mxCell id="N7eKsXsI65wqghF4MpWY-1" value="Proxmox Server" style="swimlane;startSize=20;horizontal=1;containerType=tree;newEdgeStyle={&quot;edgeStyle&quot;:&quot;elbowEdgeStyle&quot;,&quot;startArrow&quot;:&quot;none&quot;,&quot;endArrow&quot;:&quot;none&quot;};gradientColor=none;fillColor=#FFFFFF;rounded=0;shadow=0;" parent="1" vertex="1">
          <mxGeometry x="330" y="-1440" width="730" height="750" as="geometry">
            <mxRectangle x="-110" y="130" width="90" height="30" as="alternateBounds" />
          </mxGeometry>
        </mxCell>
        <mxCell id="0y0Z9eGFqq7mf9vSYT7y-5" value="" style="whiteSpace=wrap;html=1;aspect=fixed;" parent="N7eKsXsI65wqghF4MpWY-1" vertex="1">
          <mxGeometry y="20" width="730" height="730" as="geometry" />
        </mxCell>
        <mxCell id="N7eKsXsI65wqghF4MpWY-21" style="edgeStyle=orthogonalEdgeStyle;rounded=0;orthogonalLoop=1;jettySize=auto;html=1;entryX=0.5;entryY=1;entryDx=0;entryDy=0;entryPerimeter=0;" parent="N7eKsXsI65wqghF4MpWY-1" source="0y0Z9eGFqq7mf9vSYT7y-1" target="0y0Z9eGFqq7mf9vSYT7y-2" edge="1">
          <mxGeometry relative="1" as="geometry" />
        </mxCell>
        <mxCell id="N7eKsXsI65wqghF4MpWY-14" value="Active Directory&lt;br&gt;&lt;div&gt;Windows 10&lt;/div&gt;&lt;div&gt;Windows 11&lt;/div&gt;&lt;div&gt;&lt;br&gt;&lt;/div&gt;&lt;div&gt;&lt;div&gt;VLAN 20&lt;/div&gt;&lt;div&gt;&lt;span style=&quot;background-color: transparent; color: light-dark(rgb(0, 0, 0), rgb(255, 255, 255));&quot;&gt;10.10.20.1&lt;/span&gt;/24&lt;/div&gt;&lt;div&gt;DHCP:&amp;nbsp;&lt;span style=&quot;background-color: transparent; color: light-dark(rgb(0, 0, 0), rgb(255, 255, 255));&quot;&gt;10.10.20.10&lt;/span&gt;&lt;span style=&quot;background-color: transparent; color: light-dark(rgb(0, 0, 0), rgb(255, 255, 255));&quot;&gt;-100&lt;/span&gt;&lt;/div&gt;&lt;/div&gt;" style="whiteSpace=wrap;html=1;align=center;verticalAlign=middle;treeFolding=1;treeMoving=1;newEdgeStyle={&quot;edgeStyle&quot;:&quot;elbowEdgeStyle&quot;,&quot;startArrow&quot;:&quot;none&quot;,&quot;endArrow&quot;:&quot;none&quot;};" parent="N7eKsXsI65wqghF4MpWY-1" vertex="1">
          <mxGeometry x="60" y="410" width="190" height="110" as="geometry" />
        </mxCell>
        <mxCell id="N7eKsXsI65wqghF4MpWY-15" style="edgeStyle=elbowEdgeStyle;rounded=0;orthogonalLoop=1;jettySize=auto;html=1;startArrow=none;endArrow=none;exitX=0.25;exitY=0;exitDx=0;exitDy=0;" parent="N7eKsXsI65wqghF4MpWY-1" source="N7eKsXsI65wqghF4MpWY-14" target="0y0Z9eGFqq7mf9vSYT7y-1" edge="1">
          <mxGeometry relative="1" as="geometry" />
        </mxCell>
        <mxCell id="N7eKsXsI65wqghF4MpWY-16" value="Ubuntu&lt;div&gt;Docker&lt;/div&gt;&lt;div&gt;Portainer&lt;/div&gt;&lt;div&gt;&lt;br&gt;&lt;/div&gt;&lt;div&gt;VLAN 10&lt;/div&gt;&lt;div&gt;&lt;span style=&quot;background-color: transparent; color: light-dark(rgb(0, 0, 0), rgb(255, 255, 255));&quot;&gt;10.10.10.1&lt;/span&gt;/24&lt;/div&gt;&lt;div&gt;DHCP:&amp;nbsp;&lt;span style=&quot;background-color: transparent; color: light-dark(rgb(0, 0, 0), rgb(255, 255, 255));&quot;&gt;10.10.10.10&lt;/span&gt;&lt;span style=&quot;background-color: transparent; color: light-dark(rgb(0, 0, 0), rgb(255, 255, 255));&quot;&gt;-100&lt;/span&gt;&lt;/div&gt;" style="whiteSpace=wrap;html=1;align=center;verticalAlign=middle;treeFolding=1;treeMoving=1;newEdgeStyle={&quot;edgeStyle&quot;:&quot;elbowEdgeStyle&quot;,&quot;startArrow&quot;:&quot;none&quot;,&quot;endArrow&quot;:&quot;none&quot;};" parent="N7eKsXsI65wqghF4MpWY-1" vertex="1">
          <mxGeometry x="480" y="410" width="190" height="110" as="geometry" />
        </mxCell>
        <mxCell id="N7eKsXsI65wqghF4MpWY-17" style="edgeStyle=elbowEdgeStyle;rounded=0;orthogonalLoop=1;jettySize=auto;html=1;startArrow=none;endArrow=none;exitX=0.75;exitY=0;exitDx=0;exitDy=0;" parent="N7eKsXsI65wqghF4MpWY-1" source="N7eKsXsI65wqghF4MpWY-16" target="0y0Z9eGFqq7mf9vSYT7y-1" edge="1">
          <mxGeometry relative="1" as="geometry" />
        </mxCell>
        <mxCell id="N7eKsXsI65wqghF4MpWY-18" value="&lt;div&gt;&lt;span style=&quot;background-color: transparent; color: light-dark(rgb(0, 0, 0), rgb(255, 255, 255));&quot;&gt;VLAN10: 10.10.10.1&lt;/span&gt;&lt;/div&gt;&lt;div&gt;VLAN20:&amp;nbsp;&lt;span style=&quot;background-color: transparent; color: light-dark(rgb(0, 0, 0), rgb(255, 255, 255));&quot;&gt;10.10.20.1&lt;/span&gt;&lt;/div&gt;&lt;div&gt;VLAN30:&amp;nbsp;&lt;span style=&quot;background-color: transparent; color: light-dark(rgb(0, 0, 0), rgb(255, 255, 255));&quot;&gt;10.10.30.1&lt;/span&gt;&lt;/div&gt;" style="text;strokeColor=none;align=center;fillColor=none;html=1;verticalAlign=middle;whiteSpace=wrap;rounded=0;" parent="N7eKsXsI65wqghF4MpWY-1" vertex="1">
          <mxGeometry x="95" y="210" width="170" height="90" as="geometry" />
        </mxCell>
        <mxCell id="N7eKsXsI65wqghF4MpWY-22" value="WAN&lt;div&gt;192.168.0.3&lt;/div&gt;" style="text;strokeColor=none;align=center;fillColor=none;html=1;verticalAlign=middle;whiteSpace=wrap;rounded=0;" parent="N7eKsXsI65wqghF4MpWY-1" vertex="1">
          <mxGeometry x="340" y="230" width="60" height="30" as="geometry" />
        </mxCell>
        <mxCell id="5l5lN0rGiC3tDZLFYpiQ-1" value="pfSense&lt;div&gt;firewall&lt;/div&gt;" style="text;strokeColor=none;align=center;fillColor=none;html=1;verticalAlign=middle;whiteSpace=wrap;rounded=0;" parent="N7eKsXsI65wqghF4MpWY-1" vertex="1">
          <mxGeometry x="300" y="370" width="60" height="30" as="geometry" />
        </mxCell>
        <mxCell id="0y0Z9eGFqq7mf9vSYT7y-1" value="" style="fontColor=#0066CC;verticalAlign=top;verticalLabelPosition=bottom;labelPosition=center;align=center;html=1;outlineConnect=0;fillColor=#CCCCCC;strokeColor=#6881B3;gradientColor=none;gradientDirection=north;strokeWidth=2;shape=mxgraph.networks.firewall;" parent="N7eKsXsI65wqghF4MpWY-1" vertex="1">
          <mxGeometry x="275" y="270" width="110" height="90" as="geometry" />
        </mxCell>
        <mxCell id="0y0Z9eGFqq7mf9vSYT7y-2" value="" style="html=1;outlineConnect=0;fillColor=#CCCCCC;strokeColor=#6881B3;gradientColor=none;gradientDirection=north;strokeWidth=2;shape=mxgraph.networks.cloud;fontColor=#ffffff;" parent="N7eKsXsI65wqghF4MpWY-1" vertex="1">
          <mxGeometry x="265" y="40" width="130" height="70" as="geometry" />
        </mxCell>
        <mxCell id="0y0Z9eGFqq7mf9vSYT7y-4" style="edgeStyle=elbowEdgeStyle;rounded=0;orthogonalLoop=1;jettySize=auto;html=1;startArrow=none;endArrow=none;exitX=1;exitY=0.5;exitDx=0;exitDy=0;entryX=0.5;entryY=1;entryDx=0;entryDy=0;entryPerimeter=0;" parent="N7eKsXsI65wqghF4MpWY-1" source="0y0Z9eGFqq7mf9vSYT7y-3" target="0y0Z9eGFqq7mf9vSYT7y-1" edge="1">
          <mxGeometry relative="1" as="geometry" />
        </mxCell>
        <mxCell id="0y0Z9eGFqq7mf9vSYT7y-3" value="&lt;div&gt;Kali Linux&lt;div&gt;Wazuh&lt;/div&gt;&lt;/div&gt;&lt;div&gt;&lt;div&gt;&lt;br&gt;&lt;/div&gt; &lt;div&gt;&lt;div&gt;VLAN 30&lt;/div&gt;&lt;div&gt;&lt;span style=&quot;background-color: transparent; color: light-dark(rgb(0, 0, 0), rgb(255, 255, 255));&quot;&gt;10.10.30.1&lt;/span&gt;/24&lt;/div&gt;&lt;div&gt;DHCP:&amp;nbsp;&lt;span style=&quot;background-color: transparent; color: light-dark(rgb(0, 0, 0), rgb(255, 255, 255));&quot;&gt;10.10.30.10&lt;/span&gt;&lt;span style=&quot;background-color: transparent; color: light-dark(rgb(0, 0, 0), rgb(255, 255, 255));&quot;&gt;-100&lt;/span&gt;&lt;/div&gt;&lt;/div&gt;&lt;/div&gt;" style="whiteSpace=wrap;html=1;align=center;verticalAlign=middle;treeFolding=1;treeMoving=1;newEdgeStyle={&quot;edgeStyle&quot;:&quot;elbowEdgeStyle&quot;,&quot;startArrow&quot;:&quot;none&quot;,&quot;endArrow&quot;:&quot;none&quot;};" parent="N7eKsXsI65wqghF4MpWY-1" vertex="1">
          <mxGeometry x="290" y="560" width="190" height="110" as="geometry" />
        </mxCell>
        <mxCell id="18yIKMASZAdDqTaa4VwR-5" style="edgeStyle=elbowEdgeStyle;rounded=0;orthogonalLoop=1;jettySize=auto;html=1;startArrow=none;endArrow=none;exitX=1;exitY=1;exitDx=0;exitDy=0;entryX=1;entryY=1;entryDx=0;entryDy=0;" parent="N7eKsXsI65wqghF4MpWY-1" source="N7eKsXsI65wqghF4MpWY-1" target="0y0Z9eGFqq7mf9vSYT7y-5" edge="1">
          <mxGeometry relative="1" as="geometry" />
        </mxCell>
      </root>
    </mxGraphModel>
  </diagram>
</mxfile>
